<svg width="1024" height="1024" viewBox="0 0 1024 1024" fill="none" xmlns="http://www.w3.org/2000/svg">
<path d="M251.579 373.037C263.941 351.926 286.572 338.953 311.037 338.953H477.502L210.323 797.447C203.872 808.517 188.024 808.921 181.018 798.194L98.6076 672.027C91.4636 661.09 91.1207 647.053 97.7219 635.78L251.579 373.037Z" fill="#F147A5"/>
<path d="M571.937 253.184C584.285 232.016 606.947 219 631.453 219H797.842L461.386 797.415C454.941 808.495 439.084 808.905 432.074 798.174L349.656 671.994C342.523 661.074 342.169 647.062 348.741 635.796L571.937 253.184Z" fill="#F147A5"/>
<path d="M705.056 453.818C717.435 432.773 740.028 419.851 764.445 419.851H931L811.497 623C799.118 644.045 776.525 656.967 752.108 656.967H615.671C602.348 656.967 594.069 642.491 600.823 631.008L705.056 453.818Z" fill="#F147A5"/>
</svg>
